<svg width="16" height="16" viewBox="0 0 4.233 4.233" version="1.1" id="svg6" xmlns="http://www.w3.org/2000/svg"><style id="style2">@media (prefers-color-scheme:dark){.a{fill:#fff}}</style><path id="path1394" class="a" style="stroke-width:1.81048" d="M8 0a8 8 0 0 0-8 8 8 8 0 0 0 8 8 8 8 0 0 0 8-8 8 8 0 0 0-8-8zm0 3a5 5 0 0 1 .129.002 5 5 0 0 1 .129.004 5 5 0 0 1 .129.01 5 5 0 0 1 .127.011 5 5 0 0 1 .129.014 5 5 0 0 1 .127.018 5 5 0 0 1 .126.021 5 5 0 0 1 .127.025 5 5 0 0 1 .125.028 5 5 0 0 1 .125.031 5 5 0 0 1 .123.035 5 5 0 0 1 .125.037 5 5 0 0 1 .122.041 5 5 0 0 1 .12.045 5 5 0 0 1 .12.047 5 5 0 0 1 .119.049 5 5 0 0 1 .117.053 5 5 0 0 1 .117.056 5 5 0 0 1 .114.059 5 5 0 0 1 .113.062 5 5 0 0 1 .111.065 5 5 0 0 1 .11.068 5 5 0 0 1 .107.07 5 5 0 0 1 .105.075 5 5 0 0 1 .106.074 5 5 0 0 1 .102.08 5 5 0 0 1 .1.08 5 5 0 0 1 .097.084 5 5 0 0 1 .095.086 5 5 0 0 1 .094.09 5 5 0 0 1 .09.09 5 5 0 0 1 .09.094 5 5 0 0 1 .086.095 5 5 0 0 1 .084.098 5 5 0 0 1 .08.1 5 5 0 0 1 .08.101 5 5 0 0 1 .074.106 5 5 0 0 1 .074.105 5 5 0 0 1 .07.107 5 5 0 0 1 .07.11 5 5 0 0 1 .064.111 5 5 0 0 1 .062.113 5 5 0 0 1 .059.114 5 5 0 0 1 .056.117 5 5 0 0 1 .053.117 5 5 0 0 1 .049.12 5 5 0 0 1 .047.118 5 5 0 0 1 .045.121 5 5 0 0 1 .04.122 5 5 0 0 1 .038.125 5 5 0 0 1 .035.123 5 5 0 0 1 .031.125 5 5 0 0 1 .028.125 5 5 0 0 1 .025.127 5 5 0 0 1 .021.126 5 5 0 0 1 .018.127 5 5 0 0 1 .014.13 5 5 0 0 1 .011.126 5 5 0 0 1 .01.13 5 5 0 0 1 .004.128A5 5 0 0 1 13 8a5 5 0 0 1-.014.373 5 5 0 0 1-.043.373 5 5 0 0 1-.068.367 5 5 0 0 1-.098.362 5 5 0 0 1-.123.351 5 5 0 0 1-.15.344 5 5 0 0 1-.174.33 5 5 0 0 1-.2.316 5 5 0 0 1-.222.301 5 5 0 0 1-.242.283 5 5 0 0 1-.266.266 5 5 0 0 1-.283.242 5 5 0 0 1-.3.223 5 5 0 0 1-.317.2 5 5 0 0 1-.33.173 5 5 0 0 1-.344.15 5 5 0 0 1-.351.123 5 5 0 0 1-.362.098 5 5 0 0 1-.367.068 5 5 0 0 1-.373.043A5 5 0 0 1 8 13a5 5 0 0 1-.373-.014 5 5 0 0 1-.373-.043 5 5 0 0 1-.367-.068 5 5 0 0 1-.362-.098 5 5 0 0 1-.351-.123 5 5 0 0 1-.344-.15 5 5 0 0 1-.33-.174 5 5 0 0 1-.316-.2 5 5 0 0 1-.301-.222 5 5 0 0 1-.283-.242 5 5 0 0 1-.266-.266 5 5 0 0 1-.242-.283 5 5 0 0 1-.223-.3 5 5 0 0 1-.2-.317 5 5 0 0 1-.173-.33 5 5 0 0 1-.15-.344 5 5 0 0 1-.123-.351 5 5 0 0 1-.098-.362 5 5 0 0 1-.068-.367 5 5 0 0 1-.043-.373A5 5 0 0 1 3 8a5 5 0 0 1 .014-.373 5 5 0 0 1 .043-.373 5 5 0 0 1 .068-.367 5 5 0 0 1 .098-.362 5 5 0 0 1 .123-.351 5 5 0 0 1 .15-.344 5 5 0 0 1 .174-.33 5 5 0 0 1 .2-.316 5 5 0 0 1 .222-.301 5 5 0 0 1 .242-.283 5 5 0 0 1 .266-.266 5 5 0 0 1 .283-.242 5 5 0 0 1 .3-.223 5 5 0 0 1 .317-.2 5 5 0 0 1 .33-.173 5 5 0 0 1 .344-.15 5 5 0 0 1 .351-.123 5 5 0 0 1 .362-.098 5 5 0 0 1 .367-.068 5 5 0 0 1 .373-.043A5 5 0 0 1 8 3z" transform="scale(.26456)"/></svg>