<svg xmlns="http://www.w3.org/2000/svg" viewBox="0 0 203.318 203.318" style="enable-background:new 0 0 203.318 203.318" xml:space="preserve"><path style="fill:#010002" d="M101.661 67.429c-19.261 0-34.937 15.353-34.937 34.232s15.672 34.25 34.937 34.25c19.258 0 34.926-15.371 34.926-34.25 0-18.882-15.668-34.232-34.926-34.232zm0 61.606c-15.468 0-28.044-12.286-28.044-27.375 0-15.081 12.576-27.353 28.044-27.353 15.461 0 28.037 12.272 28.037 27.353 0 15.093-12.577 27.375-28.037 27.375z"/><path style="fill:#010002" d="m176.398 77.21-.97-.344-3.783-9.019.412-.927c11.442-25.947 10.658-26.723 8.754-28.606l-15.264-14.888c-.623-.616-1.714-1.052-2.663-1.052-.855 0-3.461 0-26.004 10.21l-.902.404-9.301-3.747-.376-.923C115.708 2.072 114.616 2.072 111.979 2.072H90.423c-2.627 0-3.826 0-13.653 26.294l-.369.956-9.251 3.772-.884-.369C51.009 26.29 42.102 23.03 39.779 23.03c-.945 0-2.04.422-2.67 1.041L21.835 39.002c-1.94 1.911-2.741 2.709 9.301 28.119l.444.945-3.783 9.004-.927.358C0 87.814 0 88.824 0 91.533v21.112c0 2.713 0 3.837 26.917 13.485l.963.34 3.783 8.983-.404.92c-11.445 25.961-10.719 26.662-8.768 28.599l15.239 14.913c.641.616 1.743 1.052 2.684 1.052.852 0 3.45 0 26.004-10.203l.902-.426 9.309 3.765.365.934c10.608 26.24 11.699 26.24 14.337 26.24h21.563c2.706 0 3.822 0 13.66-26.315l.372-.956 9.266-3.754.884.365c15.246 6.453 24.147 9.706 26.458 9.706.938 0 2.044-.408 2.681-1.041l15.303-14.96c1.925-1.922 2.724-2.713-9.337-28.094l-.447-.956 3.779-8.969.902-.354c26.906-10.432 26.906-11.449 26.906-14.158V90.659c-.007-2.716-.007-3.836-26.923-13.449zm-6.657 45.04-4.946 11.764a3.447 3.447 0 0 0 .068 2.82c3.482 7.283 8.085 17.415 9.985 22.404l.537 1.417-12.805 12.526-1.342-.447c-5.071-1.718-15.815-6.077-23.649-9.405a3.553 3.553 0 0 0-2.67-.011l-11.993 4.849a3.477 3.477 0 0 0-1.94 1.986c-3.386 9.126-7.247 18.735-9.176 22.865l-.626 1.342H93.007l-.637-1.267c-2.38-4.731-6.807-15.203-9.913-22.923a3.471 3.471 0 0 0-1.9-1.925l-12.036-4.874c-.805-.329-1.9-.293-2.724.072-7.727 3.536-18.123 8.049-23.069 9.853l-1.374.512-12.812-12.54.497-1.406c1.718-4.874 6.088-15.249 9.52-22.983a3.42 3.42 0 0 0 .025-2.713l-4.942-11.739a3.425 3.425 0 0 0-2.022-1.911c-7.831-2.795-18.478-6.8-23.359-8.994l-1.364-.626v-17.64l1.328-.637c4.746-2.244 15.371-6.56 23.402-9.663a3.402 3.402 0 0 0 1.94-1.865l4.967-11.764a3.49 3.49 0 0 0-.061-2.827c-4.141-8.661-8.335-18.095-9.981-22.414l-.544-1.421L40.746 30.15l1.338.447c4.95 1.657 15.668 5.977 23.692 9.398a3.49 3.49 0 0 0 2.652.011l11.996-4.871a3.53 3.53 0 0 0 1.911-1.986c2.845-7.637 6.925-18.045 9.173-22.858l.623-1.342h18.177l.651 1.285c2.351 4.713 6.778 15.203 9.888 22.948a3.494 3.494 0 0 0 1.9 1.9l12.014 4.853c.83.344 1.933.315 2.702-.043 7.78-3.554 18.227-8.077 23.116-9.856l1.381-.483 12.809 12.49-.497 1.406c-1.746 4.924-6.109 15.292-9.516 22.983-.387.877-.387 1.854-.018 2.756l4.942 11.76a3.458 3.458 0 0 0 2.022 1.918c9.427 3.343 19.022 7.015 23.345 8.947l1.385.623v17.608l-1.317.644c-4.86 2.323-15.561 6.642-23.445 9.695a3.421 3.421 0 0 0-1.929 1.867z"/></svg>